# xmcd
#
# Track frame offsets:
#	150
#	19633
#	40935
#	63353
#	87998
#	118790
#	145073
#	172503
#	197425
#
# Disc length: 2987 seconds
#
# Revision: 0
# Processed by: cddbd v1.5.2PL0 Copyright (c) Steve Scherf et al.
# Submitted via: dBpowerAMP V4.0
#
DISCID=690ba909
DTITLE=Goa - (More) Music For The Jilted Generation
DYEAR=1994
DGENRE=
TTITLE0=Voodoo People (Radio One session)
TTITLE1=Poison (Radio One session)
TTITLE2=Break and Enter (2005 live edit)
TTITLE3=Their Law (live at Pukklepop)
TTITLE4=No Good (Start the Dance) (Bad for You mix)
TTITLE5=Scienide
TTITLE6=Goa (The Heat The Energy Part 2)
TTITLE7=Rat Poison
TTITLE8=Voodoo People (Dust Brothers remix)
EXTD=
EXTT0=
EXTT1=
EXTT2=
EXTT3=
EXTT4=
EXTT5=
EXTT6=
EXTT7=
EXTT8=
PLAYORDER=
